<svg xmlns="http://www.w3.org/2000/svg" viewBox="0 0 22.79 22.373">
  <path id="Union_11" data-name="Union 11" class="cls-1" d="M-2915.02,58.373a2.7,2.7,0,0,1-2.713-2.713V44.334a2.7,2.7,0,0,1,2.713-2.714h11.326a2.724,2.724,0,0,1,2.714,2.714V55.66a2.7,2.7,0,0,1-2.714,2.713Zm-1.039-4.959V55.66a1.044,1.044,0,0,0,1.039,1.039h11.326a1.039,1.039,0,0,0,.8-.381l-8.778-5.276Zm8.326-1.959,5.077,3.052V51.654l-2.638-1.607Zm-8.326-7.121V51.51l4.014-2.17a.8.8,0,0,1,.08-.037.836.836,0,0,1,.74.052l1.857,1.117a.9.9,0,0,1,.113-.072l3.577-2.066c.026-.013.052-.026.079-.037a.836.836,0,0,1,.74.052l2.2,1.343V44.334a1.044,1.044,0,0,0-1.039-1.039h-11.326A1.044,1.044,0,0,0-2916.059,44.334Zm2.345,1.649a1.013,1.013,0,0,1,1.013-1.012,1.013,1.013,0,0,1,1.012,1.012A1.013,1.013,0,0,1-2912.7,47,1.013,1.013,0,0,1-2913.713,45.983Zm14.246-3.611V40.442h-1.969a.829.829,0,0,1-.837-.837.829.829,0,0,1,.837-.838h1.969V36.838a.829.829,0,0,1,.837-.838.829.829,0,0,1,.838.838v1.929h2.011a.829.829,0,0,1,.838.838.851.851,0,0,1-.838.837h-2.011v1.931a.829.829,0,0,1-.838.837A.829.829,0,0,1-2899.467,42.372Z" transform="translate(2917.733 -36)"/>
</svg>
