<svg xmlns="http://www.w3.org/2000/svg" viewBox="0 0 20 20">
  <g id="Add" transform="translate(-15 -14.8)">
    <path id="Path_71" data-name="Path 71" class="cls-1" d="M31,24.8a.99.99,0,0,0-1,1V30H26a1,1,0,0,0,0,2h4v3.8a1,1,0,0,0,2,0v-10A1.016,1.016,0,0,0,31,24.8Z" transform="translate(-6 -6)"/>
    <path id="Path_72" data-name="Path 72" class="cls-1" d="M48.6,37.9H47a1,1,0,0,0,0,2h1.6a1,1,0,0,0,0-2Z" transform="translate(-18.6 -13.86)"/>
    <path id="Path_73" data-name="Path 73" class="cls-1" d="M31.76,14.8H18.24A3.227,3.227,0,0,0,15,18.04V31.56a3.227,3.227,0,0,0,3.24,3.24H31.76A3.227,3.227,0,0,0,35,31.56V18.04A3.252,3.252,0,0,0,31.76,14.8ZM33,31.56a1.246,1.246,0,0,1-1.24,1.24H18.24A1.246,1.246,0,0,1,17,31.56V18.04a1.246,1.246,0,0,1,1.24-1.24H31.76A1.246,1.246,0,0,1,33,18.04Z"/>
  </g>
</svg>
