<svg xmlns="http://www.w3.org/2000/svg" viewBox="0 0 15.763 15.763">
  <g id="blogger_3_" data-name="blogger (3)" class="cls-1">
    <path id="Subtraction_13" data-name="Subtraction 13" class="cls-2" d="M14.784,15.763H.979A.98.98,0,0,1,0,14.784V.978A.98.98,0,0,1,.979,0H14.784a.98.98,0,0,1,.979.978V14.784A.98.98,0,0,1,14.784,15.763ZM5.9,2.989A2.8,2.8,0,0,0,2.989,5.924V9.838a2.839,2.839,0,0,0,2.936,2.935h3.94a2.826,2.826,0,0,0,2.909-2.935V8.86c0-1.525-.5-2.066-1.9-2.066V5.435a2.335,2.335,0,0,0-.883-1.773,2.675,2.675,0,0,0-1.617-.672Z" transform="translate(0 0)"/>
    <g id="Group_236" data-name="Group 236" transform="translate(5.436 5.436)">
      <path id="Path_964" data-name="Path 964" class="cls-2" d="M179.4,177.911H177.23a.679.679,0,1,1,0-1.359H179.4a.679.679,0,0,1,0,1.359" transform="translate(-176.551 -176.552)"/>
      <path id="Path_965" data-name="Path 965" class="cls-2" d="M180.764,292.669h-3.533a.679.679,0,0,1,0-1.359h3.533a.679.679,0,0,1,0,1.359" transform="translate(-176.552 -287.777)"/>
    </g>
  </g>
</svg>
