<svg id="Box" xmlns="http://www.w3.org/2000/svg" viewBox="0 0 20 20.034">
  <g id="Group_4" data-name="Group 4" transform="translate(0)">
    <path id="Path_9" data-name="Path 9" class="cls-1" d="M19.593,4.528,17.229,1.082A2.733,2.733,0,0,0,15.066,0H4.968A2.536,2.536,0,0,0,2.845,1.122L.481,4.568A2.317,2.317,0,0,0,0,6.01V17.47a2.582,2.582,0,0,0,2.564,2.564H17.43a2.556,2.556,0,0,0,2.564-2.564V6.01A2.442,2.442,0,0,0,19.593,4.528ZM15.066,2a.571.571,0,0,1,.481.24l1.483,2.164h-6.01V2Zm-10.578.24A.571.571,0,0,1,4.968,2H9.015v2.4H3.005ZM18.031,17.47a.548.548,0,0,1-.561.561H2.564A.548.548,0,0,1,2,17.47V6.932a.53.53,0,0,1,.521-.521H17.59a.53.53,0,0,1,.521.521V17.47Z" transform="translate(0)"/>
  </g>
  <path id="Path_10" data-name="Path 10" class="cls-1" d="M22.012,23H16a.992.992,0,0,1-1-1h0a.992.992,0,0,1,1-1h6.01a.992.992,0,0,1,1,1h0A.992.992,0,0,1,22.012,23Z" transform="translate(-8.99 -12.586)"/>
</svg>
