<svg id="google-plus" viewBox="0 0 24.294 15.544">
  <path id="Path_966" data-name="Path 966" class="cls-1" d="M8.524,91.895h3.8a4.825,4.825,0,1,1-1.31-5.174.523.523,0,0,0,.711,0l1.394-1.312a.521.521,0,0,0,0-.758,7.743,7.743,0,0,0-5.189-2.128,7.772,7.772,0,1,0,7.6,8.208c.006-.051.01-1.784.01-1.784H8.524A.521.521,0,0,0,8,89.466v1.908A.521.521,0,0,0,8.524,91.895Z" transform="translate(0 -82.519)"/>
  <path id="Path_967" data-name="Path 967" class="cls-1" d="M328.663,165.529v-1.865a.456.456,0,0,0-.456-.456h-1.569a.456.456,0,0,0-.457.456v1.865h-1.865a.456.456,0,0,0-.456.456v1.569a.456.456,0,0,0,.456.456h1.865v1.865a.456.456,0,0,0,.457.456h1.569a.456.456,0,0,0,.456-.456v-1.865h1.865a.456.456,0,0,0,.456-.456v-1.569a.456.456,0,0,0-.456-.456Z" transform="translate(-306.691 -158.93)"/>
</svg>
