<svg id="List" xmlns="http://www.w3.org/2000/svg" viewBox="0 0 20 20">
  <g id="Group_7" data-name="Group 7">
    <path id="Path_13" data-name="Path 13" class="cls-1" d="M16.76,0H3.24A3.227,3.227,0,0,0,0,3.24V16.76A3.227,3.227,0,0,0,3.24,20H16.76A3.227,3.227,0,0,0,20,16.76V3.24A3.227,3.227,0,0,0,16.76,0ZM18,16.76A1.246,1.246,0,0,1,16.76,18H3.24A1.246,1.246,0,0,1,2,16.76V3.24A1.246,1.246,0,0,1,3.24,2H16.76A1.246,1.246,0,0,1,18,3.24Z"/>
    <path id="Path_14" data-name="Path 14" class="cls-1" d="M21,12H11a1,1,0,0,0,0,2H21a1,1,0,0,0,0-2Z" transform="translate(-6 -7.2)"/>
    <path id="Path_15" data-name="Path 15" class="cls-1" d="M21,23H11a1,1,0,0,0,0,2H21a1,1,0,0,0,0-2Z" transform="translate(-6 -13.8)"/>
  </g>
  <path id="Path_16" data-name="Path 16" class="cls-1" d="M19.4,36H11a.99.99,0,0,1-1-1h0a.99.99,0,0,1,1-1h8.4a.99.99,0,0,1,1,1h0A.99.99,0,0,1,19.4,36Z" transform="translate(-6 -20.4)"/>
</svg>
