<svg xmlns="http://www.w3.org/2000/svg" viewBox="0 0 29.235 29.235">
  <path id="Logo" class="cls-1" d="M24.853,18.852H3.617a4,4,0,0,1-4-4V-6.383a4,4,0,0,1,4-4H24.853a4,4,0,0,1,4,4V14.853A4,4,0,0,1,24.853,18.852ZM12.431,12.5h0l.021.008,3.829-.025a.882.882,0,0,0,.846-.857.028.028,0,0,0,0-.019.021.021,0,0,0-.012-.011l-.024-3.155a.8.8,0,0,0-.229-.588.811.811,0,0,0-.578-.249h-.028L16.235,7.6l-.706.014L18.5,4.219a3.531,3.531,0,0,0,1.312-2.69,3.52,3.52,0,0,0-3.229-3.5,3.553,3.553,0,0,0-3.23-2.087h-.021a3.631,3.631,0,0,0-3.576,3.6v.125a2.842,2.842,0,0,0-.416,4.675L9.33,4.36l3.74,3.284-.653.011h-.025a.816.816,0,0,0-.811.836l-.009.022.023,3.154a.818.818,0,0,0,.809.837h.026Zm.463-1.18a.2.2,0,0,1-.188-.181l.009-.022L12.71,8.97a.2.2,0,0,1,.181-.2l.022.009,2.854-.02h.015a.2.2,0,0,1,.187.182l-.009.022.006,2.149a.188.188,0,0,1-.164.2h-.018l-2.876.011ZM14.345,7.21h0L11.8,4.982l4.5-.005-1.95,2.232Zm1.987-3.376H11.116a1.721,1.721,0,0,1-1.684-1.7,1.732,1.732,0,0,1,1.119-1.6l.444-.17-.068-.452A2.177,2.177,0,0,1,10.9-.449a2.438,2.438,0,0,1,2.433-2.437h.049A2.29,2.29,0,0,1,15.594-1.2l.137.405.507-.02.073,0h.016a2.317,2.317,0,0,1,2.3,2.308,2.347,2.347,0,0,1-.776,1.733l-.048.056A2.314,2.314,0,0,1,16.332,3.834Z" transform="translate(0.382 10.382)"/>
</svg>
