<svg viewBox="0 0 19.793 16.745">
  <path id="medium" class="cls-1" d="M6.594,141.126v12.956a.786.786,0,0,1-.138.469.464.464,0,0,1-.4.193.806.806,0,0,1-.365-.088L.552,152.083a.939.939,0,0,1-.392-.37A.973.973,0,0,1,0,151.2V138.607a.629.629,0,0,1,.11-.376.369.369,0,0,1,.32-.155,1.273,1.273,0,0,1,.486.166l5.644,2.828A.091.091,0,0,1,6.594,141.126Zm.707,1.116,5.9,9.565-5.9-2.938Zm12.492.2v11.642a.642.642,0,0,1-.155.447.537.537,0,0,1-.42.171,1.043,1.043,0,0,1-.519-.144l-4.871-2.43Zm-.033-1.325q0,.033-2.833,4.634t-3.319,5.385l-4.308-7,3.579-5.821a.626.626,0,0,1,.574-.309.633.633,0,0,1,.287.066l5.976,2.982A.071.071,0,0,1,19.76,141.115Z" transform="translate(0 -138)"/>
</svg>
