<svg viewBox="0 0 16.984 16.952">
  <g id="Close" transform="translate(-566.817 729.509) rotate(-45)">
    <path id="Path_86" data-name="Path 86" class="cls-1" d="M942.034-75.666a.633.633,0,0,1-.916,0l-3.3-3.3-.472-.471a.633.633,0,0,1,0-.917h0a.633.633,0,0,1,.917,0l.471.471,3.3,3.3A.682.682,0,0,1,942.034-75.666Z" transform="translate(-19.56 -21.561)"/>
    <path id="Path_87" data-name="Path 87" class="cls-1" d="M922.474-106.854a.633.633,0,0,0-.917,0l-4.871,4.871-4.871-4.871a.632.632,0,0,0-.471-.183.63.63,0,0,0-.471.183.633.633,0,0,0,0,.917l4.844,4.9-4.871,4.871a.633.633,0,0,0,0,.917.633.633,0,0,0,.917,0l10.685-10.684a.631.631,0,0,0,.183-.471A.66.66,0,0,0,922.474-106.854Z" transform="translate(0 -2)"/>
  </g>
</svg>
