<svg xmlns="http://www.w3.org/2000/svg" viewBox="0 0 18.184 18.184">
  <g id="slack" class="cls-1">
    <g id="Group_237" data-name="Group 237" transform="translate(0 0)">
      <path id="Path_968" data-name="Path 968" class="cls-2" d="M18.1,9.758a1.619,1.619,0,0,0-2.041-1.04l-1.632.531c-.361-1.114-.747-2.3-1.108-3.41l1.632-.531a1.62,1.62,0,0,0-1-3.081l-1.632.531-.531-1.632a1.619,1.619,0,1,0-3.08,1L9.242,3.76,5.832,4.868c-.322-.992-.53-1.632-.53-1.632a1.62,1.62,0,0,0-3.081,1l.531,1.633-1.684.548a1.62,1.62,0,0,0,1,3.08l1.684-.548,1.108,3.41-1.684.548a1.62,1.62,0,0,0,1,3.08l1.685-.548.548,1.684a1.62,1.62,0,0,0,3.08-1l-.547-1.684,3.41-1.108.548,1.684a1.62,1.62,0,0,0,3.08-1l-.548-1.684,1.632-.531A1.62,1.62,0,0,0,18.1,9.758Zm-10.163,1.6c-.363-1.114-.747-2.3-1.108-3.41l3.41-1.108,1.108,3.41Z" transform="translate(0 -0.007)"/>
    </g>
  </g>
</svg>
