<svg id="_4f004ac9be168ac6ee18fc442a52ab53" data-name="4f004ac9be168ac6ee18fc442a52ab53" xmlns="http://www.w3.org/2000/svg" viewBox="0 0 21.993 15.234">
  <g id="Group_238" data-name="Group 238" transform="translate(0 0)">
    <path id="Subtraction_14" data-name="Subtraction 14" class="cls-1" d="M5.649,15.234a7.489,7.489,0,0,1-4.375-1.4A5.046,5.046,0,0,1,0,12.511,23.733,23.733,0,0,1,2.725,1.917,9.157,9.157,0,0,1,7.91,0h.06l.2.2a10.819,10.819,0,0,0-4.841,2.32A.327.327,0,0,1,3.374,2.5c.124-.059.5-.24,1.066-.481A13.49,13.49,0,0,1,8.676.908h.3C9.6.852,10.325.792,11.065.792a10.846,10.846,0,0,1,1.648.116,16.341,16.341,0,0,1,5.649,1.715A12.275,12.275,0,0,0,13.72.3l.3-.3h.06a9.157,9.157,0,0,1,5.185,1.917,23.716,23.716,0,0,1,2.723,10.594.011.011,0,0,0-.007,0c-.026,0-.092.07-.2.184a7.621,7.621,0,0,1-5.641,2.441l-.011-.012c-.172-.2-.768-.9-1.2-1.5a6.024,6.024,0,0,0,3.33-2.119,16.015,16.015,0,0,1-1.671.893l-.043.021c-.14.068-.274.132-.4.2a13.871,13.871,0,0,1-2.725.807,14.018,14.018,0,0,1-2.334.191,17.676,17.676,0,0,1-2.509-.191,12.591,12.591,0,0,1-2.723-.807c-.383-.192-.827-.371-1.412-.6h0a.134.134,0,0,1-.1-.051.132.132,0,0,0-.1-.051h-.1a5.287,5.287,0,0,0-.5-.3A6.056,6.056,0,0,0,6.86,13.722c-.57.664-1.146,1.426-1.21,1.511h0Zm8.678-8.575a1.972,1.972,0,0,0-1.918,2.018,1.919,1.919,0,1,0,3.834,0A1.972,1.972,0,0,0,14.327,6.658Zm-6.86,0A1.972,1.972,0,0,0,5.549,8.677a1.972,1.972,0,0,0,1.918,2.018A1.971,1.971,0,0,0,9.383,8.677,1.972,1.972,0,0,0,7.466,6.658Z" transform="translate(0 0)"/>
  </g>
</svg>
