<svg xmlns="http://www.w3.org/2000/svg" viewBox="0 0 17.536 17.536">
  <g id="Plus" transform="translate(-805.387 112.314)">
    <g id="Group_73" data-name="Group 73" transform="translate(816.7 -112.314) rotate(45)">
      <path id="Path_88" data-name="Path 88" class="cls-1" d="M815.9-108.2v6.4h-6.4a.792.792,0,0,0-.8.8h0a.792.792,0,0,0,.8.8h6.4v6.4a.792.792,0,0,0,.8.8h0a.792.792,0,0,0,.8-.8v-14.4a.792.792,0,0,0-.8-.8h0A.792.792,0,0,0,815.9-108.2Z" transform="translate(-808.7 109)"/>
      <path id="Path_89" data-name="Path 89" class="cls-1" d="M844.98-84.9H840.5a.792.792,0,0,1-.8-.8h0a.792.792,0,0,1,.8-.8h4.48a.792.792,0,0,1,.8.8h0A.813.813,0,0,1,844.98-84.9Z" transform="translate(-829.78 93.7)"/>
    </g>
  </g>
</svg>
