<svg viewBox="0 0 18 18">
  <g id="Group_408" data-name="Group 408" transform="translate(-409 -163)">
    <ellipse id="Ellipse_12" data-name="Ellipse 12" class="cls-1" cx="9" cy="9" rx="9" ry="9" transform="translate(409 163)"/>
    <g id="fire" transform="translate(414.349 167.236)">
      <g id="Group_137" data-name="Group 137" transform="translate(0 0)">
        <path id="Path_204" data-name="Path 204" class="fire" fill="#fff" d="M49.314,2.847a2.448,2.448,0,0,0-.555-.474l-.018-.01a.374.374,0,0,0-.374.024c-.119.08-.282.189-.149,1.968,0,0,0,.009,0,.013a.559.559,0,0,1,0,.191l0,.016a.849.849,0,0,1-.712.641.814.814,0,0,1-.855-.369.988.988,0,0,1-.046-.894c.029-.058.057-.118.085-.178a3.716,3.716,0,0,1,.2-.393A2.86,2.86,0,0,0,46.628.156a.371.371,0,0,0-.573-.041c-.294.311-.58.637-.857.953-.333.379-.677.772-1.035,1.137a5.356,5.356,0,0,0-1.493,2.587,3.694,3.694,0,0,0,.3,2.241A4,4,0,0,0,46.307,9.26c.058,0,.116,0,.175,0A3.872,3.872,0,0,0,49.8,7.342,3.715,3.715,0,0,0,49.314,2.847Z" transform="translate(-42.613 0.001)"/>
      </g>
    </g>
  </g>
</svg>
