<svg xmlns="http://www.w3.org/2000/svg" viewBox="0 0 18.019 17.6">
  <path id="Path_342" data-name="Path 342" class="cls-1" d="M16.812,4.489a8.953,8.953,0,0,0-3.277-3.277A8.775,8.775,0,0,0,9.009,0,8.821,8.821,0,0,0,4.484,1.207,8.953,8.953,0,0,0,1.207,4.484,8.821,8.821,0,0,0,0,9.009a8.757,8.757,0,0,0,1.721,5.3,8.826,8.826,0,0,0,4.438,3.257.517.517,0,0,0,.467-.082.452.452,0,0,0,.154-.349c0-.026,0-.236-.005-.632s-.005-.745-.005-1.043L6.5,15.5a3.387,3.387,0,0,1-.652.041,5.117,5.117,0,0,1-.817-.082,1.864,1.864,0,0,1-.786-.349,1.482,1.482,0,0,1-.514-.719l-.118-.272a2.742,2.742,0,0,0-.37-.6,1.419,1.419,0,0,0-.509-.447l-.082-.057a.99.99,0,0,1-.154-.139.752.752,0,0,1-.108-.164c-.026-.057-.005-.1.057-.134a.746.746,0,0,1,.339-.051l.236.036a1.679,1.679,0,0,1,.58.283,1.862,1.862,0,0,1,.57.611,2.08,2.08,0,0,0,.652.735,1.362,1.362,0,0,0,.77.252,3.56,3.56,0,0,0,.668-.057,2.459,2.459,0,0,0,.529-.175,1.905,1.905,0,0,1,.575-1.207,8.062,8.062,0,0,1-1.2-.211,4.8,4.8,0,0,1-1.1-.457,3.155,3.155,0,0,1-.945-.786A3.738,3.738,0,0,1,3.5,10.324a5.891,5.891,0,0,1-.241-1.762,3.44,3.44,0,0,1,.925-2.419A3.163,3.163,0,0,1,4.263,3.75a1.636,1.636,0,0,1,1.007.159,7.258,7.258,0,0,1,.981.452c.205.123.375.231.5.318A8.264,8.264,0,0,1,9,4.376a8.468,8.468,0,0,1,2.255.3l.447-.283a6.217,6.217,0,0,1,1.079-.519,1.541,1.541,0,0,1,.95-.128,3.1,3.1,0,0,1,.092,2.394,3.422,3.422,0,0,1,.925,2.419,5.975,5.975,0,0,1-.241,1.767,3.641,3.641,0,0,1-.622,1.233,3.309,3.309,0,0,1-.95.781,4.712,4.712,0,0,1-1.1.457,8.062,8.062,0,0,1-1.2.211,2.1,2.1,0,0,1,.611,1.664v2.476a.466.466,0,0,0,.149.349.506.506,0,0,0,.462.082A8.831,8.831,0,0,0,16.3,14.326a8.757,8.757,0,0,0,1.721-5.3,8.809,8.809,0,0,0-1.207-4.541Zm0,0"/>
</svg>
