<svg xmlns="http://www.w3.org/2000/svg" viewBox="0 0 17.596 17.596">
  <g id="_029-instagram" data-name="029-instagram" class="cls-1">
    <path id="Path_314" data-name="Path 314" class="cls-2" d="M12.354,0H5.242A5.248,5.248,0,0,0,0,5.242v7.112A5.248,5.248,0,0,0,5.242,17.6h7.112A5.248,5.248,0,0,0,17.6,12.354V5.242A5.248,5.248,0,0,0,12.354,0Zm3.472,12.354a3.472,3.472,0,0,1-3.472,3.472H5.242A3.472,3.472,0,0,1,1.77,12.354V5.242A3.472,3.472,0,0,1,5.242,1.77h7.112a3.472,3.472,0,0,1,3.472,3.472v7.112Z"/>
    <path id="Path_315" data-name="Path 315" class="cls-2" d="M137.551,133a4.551,4.551,0,1,0,4.551,4.551A4.556,4.556,0,0,0,137.551,133Zm0,7.332a2.781,2.781,0,1,1,2.781-2.781A2.781,2.781,0,0,1,137.551,140.332Z" transform="translate(-128.753 -128.753)"/>
    <ellipse id="Ellipse_18" data-name="Ellipse 18" class="cls-2" cx="1.09" cy="1.09" rx="1.09" ry="1.09" transform="translate(12.267 3.191)"/>
  </g>
</svg>
