<svg viewBox="0 0 19.776 16.048">
  <g id="support" class="cls-1">
    <g id="Group_235" data-name="Group 235" transform="translate(0 0)">
      <g id="Group_234" data-name="Group 234" transform="translate(0 0)">
        <path id="Path_960" data-name="Path 960" class="cls-2" d="M87.447,41.206H73.878a1.471,1.471,0,0,0-1.466,1.466V51.1a1.471,1.471,0,0,0,1.466,1.466h9.354L85.348,54.7a.453.453,0,0,0,.326.145.467.467,0,0,0,.47-.47V52.568h1.3A1.471,1.471,0,0,0,88.913,51.1V42.672A1.471,1.471,0,0,0,87.447,41.206ZM75.958,48.461A1.357,1.357,0,1,1,77.315,47.1,1.367,1.367,0,0,1,75.958,48.461Zm4.758,0A1.357,1.357,0,1,1,82.074,47.1,1.367,1.367,0,0,1,80.717,48.461Zm4.74,0A1.357,1.357,0,1,1,86.814,47.1,1.367,1.367,0,0,1,85.457,48.461Z" transform="translate(-69.137 -41.206)"/>
        <path id="Path_961" data-name="Path 961" class="cls-2" d="M2.443,200.083v-2.877H.959a.965.965,0,0,0-.959.959V203.7a.951.951,0,0,0,.959,1h.85v1.194a.317.317,0,0,0,.308.308.3.3,0,0,0,.217-.09l1.393-1.393H9.879a.965.965,0,0,0,.959-.959V202.38h-6.1A2.3,2.3,0,0,1,2.443,200.083Z" transform="translate(0 -190.15)"/>
      </g>
    </g>
  </g>
</svg>
