<svg xmlns="http://www.w3.org/2000/svg" viewBox="0 0 20 20">
  <g id="Сalendar" transform="translate(-1108.7 609)">
    <g id="Group_119" data-name="Group 119" transform="translate(1108.7 -609)">
      <g id="Group_115" data-name="Group 115">
        <path id="Path_187" data-name="Path 187" class="cls-1" d="M1125.46-607h-.76v-1a.99.99,0,0,0-1-1,.99.99,0,0,0-1,1v1h-8v-1a.99.99,0,0,0-1-1,.99.99,0,0,0-1,1v1h-.76a3.226,3.226,0,0,0-3.24,3.24v11.52a3.226,3.226,0,0,0,3.24,3.24h13.52a3.226,3.226,0,0,0,3.24-3.24v-11.52A3.252,3.252,0,0,0,1125.46-607Zm1.24,14.76a1.246,1.246,0,0,1-1.24,1.24h-13.52a1.246,1.246,0,0,1-1.24-1.24v-11.52a1.246,1.246,0,0,1,1.24-1.24h.76v1a.99.99,0,0,0,1,1,.99.99,0,0,0,1-1v-1h8v1a.99.99,0,0,0,1,1,.99.99,0,0,0,1-1v-1h.76a1.246,1.246,0,0,1,1.24,1.24Z" transform="translate(-1108.7 609)"/>
      </g>
      <g id="Group_116" data-name="Group 116" transform="translate(9 9.2)">
        <circle id="Ellipse_6" data-name="Ellipse 6" class="cls-1" cx="1" cy="1" r="1"/>
      </g>
      <g id="Group_117" data-name="Group 117" transform="translate(9 12.8)">
        <circle id="Ellipse_7" data-name="Ellipse 7" class="cls-1" cx="1" cy="1" r="1"/>
      </g>
      <g id="Group_118" data-name="Group 118" transform="translate(5.4 12.8)">
        <circle id="Ellipse_8" data-name="Ellipse 8" class="cls-1" cx="1" cy="1" r="1"/>
      </g>
    </g>
    <g id="Group_122" data-name="Group 122" transform="translate(1121.3 -599.8)">
      <g id="Group_120" data-name="Group 120">
        <circle id="Ellipse_9" data-name="Ellipse 9" class="cls-1" cx="1" cy="1" r="1"/>
      </g>
      <g id="Group_121" data-name="Group 121" transform="translate(0 3.6)">
        <circle id="Ellipse_10" data-name="Ellipse 10" class="cls-1" cx="1" cy="1" r="1"/>
      </g>
    </g>
  </g>
</svg>
